# xmcd
#
# Track frame offsets:
#       165
#       13052
#       29890
#       48370
#       50252
#       51527
#       53032
#       56735
#       58245
#       58932
#
# Disc length: 986 seconds
#
# Revision: 0
# Processed by: cddbd v1.5.1PL2 Copyright (c) Steve Scherf et al.
# Submitted via: WhereIsIt 3.67
#
DISCID=9a03d80a
DTITLE=21 - Marek Andrzejewski - P造ta promocyjna
DYEAR=1999
DGENRE=
TTITLE0=Ballada o czarnym wtorku (wersja radiowa)
TTITLE1=Trolejbusowy batyskaf
TTITLE2=Podr璚zny s這wniczek
TTITLE3=Marek o "Balladzie o Czarnym Wtorku"
TTITLE4=Marek o "Trolejbusowym batyskafie"
TTITLE5=Marek o p造cie
TTITLE6=Marek o sobie
TTITLE7=Marek o "Niesfornych"
TTITLE8=Pozdrowienia dla s逝chaczy
TTITLE9=Ballada o czarnym wtorku (wersja CD)
EXTD=P造ta promocyjna
EXTT0=
EXTT1=
EXTT2=
EXTT3=
EXTT4=
EXTT5=
EXTT6=
EXTT7=
EXTT8=
EXTT9=
PLAYORDER=
